<svg width="25" height="25" viewBox="0 0 25 25" fill="none" xmlns="http://www.w3.org/2000/svg">
<g clip-path="url(#clip0_4_836)">
<g clip-path="url(#clip1_4_836)">
<g clip-path="url(#clip2_4_836)">
<mask id="mask0_4_836" style="mask-type:luminance" maskUnits="userSpaceOnUse" x="0" y="0" width="25" height="25">
<path d="M24.8097 0.0283203H0.809692V24.0283H24.8097V0.0283203Z" fill="white"/>
</mask>
<g mask="url(#mask0_4_836)">
<path d="M18.8407 16.6453L23.1237 20.9273L21.7087 22.3423L17.4267 18.0593C15.8334 19.3365 13.8517 20.0312 11.8097 20.0283C6.84169 20.0283 2.80969 15.9963 2.80969 11.0283C2.80969 6.06032 6.84169 2.02832 11.8097 2.02832C16.7777 2.02832 20.8097 6.06032 20.8097 11.0283C20.8126 13.0703 20.1179 15.052 18.8407 16.6453ZM16.8347 15.9033C18.1038 14.5982 18.8126 12.8487 18.8097 11.0283C18.8097 7.16032 15.6767 4.02832 11.8097 4.02832C7.94169 4.02832 4.80969 7.16032 4.80969 11.0283C4.80969 14.8953 7.94169 18.0283 11.8097 18.0283C13.6301 18.0312 15.3796 17.3224 16.6847 16.0533L16.8347 15.9033Z" fill="#84889A"/>
</g>
</g>
</g>
</g>
<defs>
<clipPath id="clip0_4_836">
<rect width="24" height="24" fill="white" transform="translate(0.809692 0.0283203)"/>
</clipPath>
<clipPath id="clip1_4_836">
<rect width="24" height="24" fill="white" transform="translate(0.809692 0.0283203)"/>
</clipPath>
<clipPath id="clip2_4_836">
<rect width="24" height="24" fill="white" transform="translate(0.809692 0.0283203)"/>
</clipPath>
</defs>
</svg>
