<svg width="24" height="25" viewBox="0 0 24 25" fill="none" xmlns="http://www.w3.org/2000/svg">
<path d="M5.11738 9.01559C5.11738 6.86957 6.8738 5.12988 9.04046 5.12988C11.2071 5.12988 12.9635 6.86957 12.9635 9.01559C12.9635 11.1616 11.2071 12.9013 9.04046 12.9013C6.8738 12.9013 5.11738 11.1616 5.11738 9.01559Z" fill="#1552F0"/>
<path d="M6.56092 14.656L6.72532 14.63C8.25904 14.3876 9.82189 14.3876 11.3556 14.63L11.52 14.656C13.6811 14.9976 15.2712 16.8439 15.2712 19.0115C15.2712 20.1815 14.3137 21.1299 13.1325 21.1299H4.94843C3.76724 21.1299 2.80969 20.1815 2.80969 19.0115C2.80969 16.8439 4.39985 14.9976 6.56092 14.656Z" fill="#1552F0"/>
<path d="M14.5789 5.12988C14.1966 5.12988 13.8866 5.43688 13.8866 5.81559C13.8866 6.1943 14.1966 6.50131 14.5789 6.50131C15.9809 6.50131 17.1174 7.62699 17.1174 9.01559C17.1174 10.4042 15.9809 11.5299 14.5789 11.5299C14.1966 11.5299 13.8866 11.8369 13.8866 12.2156C13.8866 12.5943 14.1966 12.9013 14.5789 12.9013C16.7456 12.9013 18.502 11.1616 18.502 9.01559C18.502 6.86957 16.7456 5.12988 14.5789 5.12988Z" fill="#1552F0"/>
<path d="M15.7246 14.6211C15.3423 14.6211 15.0323 14.9281 15.0323 15.3068C15.0323 15.6855 15.3423 15.9925 15.7246 15.9925H16.6183C16.6926 15.9925 16.767 15.9983 16.8403 16.0099C18.3294 16.2453 19.4251 17.5175 19.4251 19.0111C19.4251 19.4236 19.0875 19.758 18.671 19.758H16.785C16.4026 19.758 16.0927 20.0651 16.0927 20.4438C16.0927 20.8225 16.4026 21.1295 16.785 21.1295H18.671C19.8522 21.1295 20.8097 20.1811 20.8097 19.0111C20.8097 16.8435 19.2195 14.9972 17.0585 14.6556C16.9129 14.6326 16.7656 14.6211 16.6183 14.6211H15.7246Z" fill="#1552F0"/>
</svg>
