<svg width="45" height="45" viewBox="0 0 45 45" fill="none" xmlns="http://www.w3.org/2000/svg">
<path d="M30.4043 21.8982C30.6463 21.8689 30.8755 21.8652 31.0882 21.8982C31.2092 21.6159 31.2312 21.13 31.123 20.6002C30.958 19.8137 30.7362 19.3389 30.2778 19.4159C29.8177 19.4892 29.7993 20.0575 29.9662 20.844C30.0578 21.284 30.2228 21.6617 30.4043 21.8982ZM26.4645 22.5197C26.7945 22.6627 26.9962 22.7562 27.0713 22.6774C27.1245 22.626 27.1098 22.5234 27.031 22.395C26.8188 22.0911 26.5234 21.8549 26.1803 21.7149C25.8137 21.5622 25.4139 21.5066 25.0196 21.5535C24.6252 21.6003 24.2496 21.7481 23.929 21.9825C23.7108 22.1439 23.5037 22.3657 23.5293 22.5014C23.5422 22.5435 23.5715 22.5784 23.6485 22.593C23.83 22.6132 24.4625 22.2924 25.194 22.2484C25.711 22.2117 26.1345 22.373 26.4645 22.5197ZM25.8027 22.8955C25.3773 22.9634 25.1408 23.1027 24.9905 23.2384C24.8603 23.352 24.7833 23.473 24.7833 23.5629L24.8163 23.6399L24.8842 23.6655C24.9813 23.6655 25.1977 23.5812 25.1977 23.5812C25.7917 23.3704 26.1858 23.3942 26.5763 23.4382C26.7908 23.4639 26.8917 23.4749 26.9393 23.4015C26.9522 23.3795 26.9723 23.3374 26.9265 23.2659C26.8238 23.099 26.393 22.8259 25.8027 22.8955ZM29.0733 24.2815C29.3648 24.4245 29.6838 24.3659 29.7883 24.155C29.8965 23.9442 29.7443 23.6564 29.4528 23.5152C29.1632 23.3704 28.8423 23.4254 28.7378 23.6362C28.6333 23.847 28.7855 24.1385 29.0733 24.2815ZM30.9397 22.648C30.705 22.6444 30.5107 22.901 30.5033 23.2274C30.4978 23.5519 30.6867 23.8159 30.9232 23.8177C31.1597 23.8214 31.354 23.5629 31.3595 23.2402C31.365 22.9175 31.178 22.6535 30.9397 22.648ZM15.0923 28.4835C15.0337 28.4102 14.9365 28.4304 14.843 28.456C14.777 28.4689 14.7037 28.4872 14.6248 28.4854C14.5459 28.4869 14.4677 28.4692 14.397 28.4338C14.3265 28.3983 14.2655 28.3461 14.2197 28.2819C14.1115 28.1169 14.117 27.8694 14.238 27.5889L14.293 27.4624C14.4837 27.0389 14.7972 26.3275 14.4433 25.651C14.3276 25.4122 14.1549 25.2056 13.9403 25.0496C13.7258 24.8935 13.476 24.7928 13.2132 24.7564C12.9647 24.7246 12.7122 24.7524 12.4766 24.8375C12.2411 24.9226 12.0291 25.0626 11.8583 25.2459C11.3377 25.8197 11.2588 26.6044 11.3578 26.883C11.3963 26.9857 11.455 27.0132 11.4953 27.0187C11.5833 27.0315 11.7135 26.9655 11.796 26.7437L11.8217 26.674C11.8583 26.5567 11.9262 26.3367 12.038 26.1644C12.1759 25.9535 12.3918 25.8061 12.6383 25.7545C12.8848 25.7031 13.1417 25.7515 13.3525 25.8894C13.7192 26.1295 13.8567 26.5769 13.7008 27.004C13.6202 27.2259 13.49 27.6475 13.5175 27.994C13.5762 28.6962 14.0125 28.9785 14.3975 29.0134C14.7752 29.0262 15.0392 28.8154 15.107 28.6595C15.1455 28.5624 15.1125 28.5055 15.0923 28.4835Z" fill="black"/>
<path d="M36.8979 27.1981C36.8814 27.1449 36.7861 26.802 36.6596 26.3914L36.3956 25.6874C36.9107 24.9119 36.9199 24.2225 36.8521 23.8302C36.7747 23.3256 36.5353 22.8596 36.1701 22.5029C35.7631 22.0775 34.9289 21.6375 33.7592 21.3094L33.1451 21.1389C33.1414 21.1114 33.1121 19.6905 33.0882 19.08C33.0681 18.64 33.0314 17.9507 32.8169 17.2724C32.5602 16.352 32.1184 15.5527 31.5629 15.0339C33.0937 13.4499 34.0471 11.7028 34.0452 10.2049C34.0397 7.32475 30.5014 6.44842 26.1399 8.25608L25.2177 8.64842C25.2141 8.64475 23.5476 7.00942 23.5237 6.98925C18.5481 2.65158 3.00502 19.9325 7.97702 24.129L9.06419 25.0475C8.7705 25.8342 8.66624 26.679 8.75985 27.5134C8.87902 28.6702 9.47302 29.7757 10.4374 30.6319C11.354 31.4422 12.5622 31.9592 13.7301 31.9574C15.6642 36.416 20.0826 39.1477 25.2636 39.3036C30.8222 39.4686 35.4862 36.8597 37.4442 32.1737C37.5707 31.8456 38.1134 30.3642 38.1134 29.0571C38.1116 27.7407 37.3691 27.1962 36.8979 27.1981ZM14.1554 30.7034C13.986 30.7337 13.814 30.7465 13.6421 30.7419C11.9627 30.6942 10.1495 29.1835 9.96985 27.3924C9.77002 25.4124 10.782 23.887 12.575 23.5277C12.7877 23.4819 13.0481 23.458 13.3267 23.4709C14.3314 23.5295 15.8091 24.2995 16.1482 26.4867C16.4489 28.4209 15.9722 30.3954 14.1554 30.7034ZM12.2835 22.3397C11.1935 22.5413 10.2249 23.1593 9.58302 24.063C9.22185 23.7624 8.55269 23.183 8.43535 22.9557C7.47469 21.1334 9.48219 17.5877 10.8865 15.5857C14.3497 10.6394 19.7801 6.89758 22.2954 7.57225C22.7024 7.68958 24.0554 9.26075 24.0554 9.26075C24.0554 9.26075 21.5437 10.6523 19.2117 12.5956C16.0749 15.0155 13.7007 18.5282 12.2835 22.3397ZM29.9037 29.9627C29.9226 29.9548 29.9383 29.9407 29.9483 29.9228C29.9582 29.9048 29.9619 29.884 29.9587 29.8637C29.9575 29.8515 29.954 29.8396 29.9481 29.8288C29.9424 29.818 29.9344 29.8085 29.9249 29.8008C29.9152 29.7931 29.9042 29.7873 29.8924 29.784C29.8806 29.7806 29.8682 29.7797 29.8561 29.7812C29.8561 29.7812 27.2271 30.1699 24.7429 29.2624C25.0124 28.3842 25.7347 28.6977 26.8219 28.7875C28.5117 28.8873 30.2065 28.7039 31.8361 28.2449C32.9599 27.9204 34.4376 27.2842 35.5852 26.3785C35.9739 27.231 36.1096 28.1661 36.1096 28.1661C36.1096 28.1661 36.4084 28.1129 36.6596 28.2669C36.8979 28.4135 37.0702 28.716 36.9529 29.497C36.7091 30.9601 36.0894 32.1462 35.0426 33.2389C34.3911 33.9458 33.6149 34.5262 32.7527 34.9512C32.2736 35.2036 31.7745 35.4158 31.2604 35.5856C27.3206 36.8707 23.2872 35.4572 21.9874 32.4194C21.8825 32.1868 21.7955 31.9465 21.7271 31.7007C21.1734 29.6987 21.6427 27.3007 23.1112 25.7864V25.7845C23.2047 25.6892 23.2982 25.5774 23.2982 25.4344C23.2982 25.317 23.2212 25.1905 23.1571 25.0989C22.6437 24.3545 20.8599 23.084 21.2192 20.6255C21.4741 18.8582 23.0196 17.6152 24.4606 17.6885L24.8272 17.7105C25.4506 17.7472 25.9951 17.826 26.5084 17.8499C27.3701 17.8847 28.1419 17.76 29.0586 16.9974C29.3684 16.737 29.6159 16.5152 30.0339 16.4455C30.0779 16.4345 30.1879 16.3997 30.4061 16.407C30.6297 16.4161 30.8469 16.4851 31.0349 16.6069C31.7682 17.0945 31.8727 18.2789 31.9131 19.146C31.9351 19.6392 31.9956 20.8364 32.0139 21.1774C32.0616 21.962 32.2687 22.0739 32.6831 22.2095C32.9196 22.2902 33.1377 22.3452 33.4586 22.4387C34.4284 22.7082 35.0077 22.9887 35.3707 23.3425C35.5588 23.5248 35.6802 23.7651 35.7154 24.0245C35.8346 24.8624 35.0682 25.8964 33.0479 26.8351C30.8369 27.8599 28.1547 28.1202 26.3031 27.913L25.6541 27.8397C24.1691 27.6417 23.3276 29.5557 24.2167 30.8666C24.7906 31.7117 26.3507 32.2617 27.9146 32.2617C31.4951 32.2654 34.2487 30.7364 35.2754 29.4127L35.3561 29.2972C35.4037 29.2202 35.3652 29.1817 35.3011 29.222C34.4669 29.794 30.7489 32.0674 26.7742 31.3854C26.7742 31.3854 26.2902 31.3047 25.8502 31.1324C25.5019 31.0004 24.7667 30.6594 24.6787 29.9077C27.8816 30.9032 29.9037 29.9627 29.9037 29.9627ZM18.6837 15.5674C19.9157 14.1447 21.4319 12.9054 22.7922 12.2124C22.8381 12.1868 22.8876 12.2399 22.8619 12.2821C22.6949 12.5747 22.5669 12.8878 22.4806 13.2134C22.4696 13.2629 22.5227 13.3032 22.5649 13.272C23.4119 12.6964 24.8822 12.0786 26.1729 12.0016C26.1854 11.9994 26.1983 12.0017 26.2094 12.008C26.2204 12.0143 26.229 12.0243 26.2335 12.0362C26.2382 12.0481 26.2384 12.0612 26.2344 12.0733C26.2302 12.0854 26.2222 12.0957 26.2114 12.1024C25.9975 12.2665 25.8064 12.4582 25.6431 12.6726C25.6174 12.7093 25.6412 12.7624 25.6871 12.7624C26.5927 12.7679 27.8706 13.0832 28.7011 13.5507C28.7561 13.5837 28.7157 13.6919 28.6552 13.6772C27.3939 13.3894 25.3351 13.1694 23.1937 13.6919C21.2797 14.1575 19.8204 14.8762 18.7589 15.6517C18.7039 15.6884 18.6397 15.6169 18.6837 15.5674Z" fill="black"/>
</svg>
