<svg width="28" height="33" viewBox="0 0 28 33" fill="none" xmlns="http://www.w3.org/2000/svg">
<g clip-path="url(#clip0_4_1163)">
<mask id="mask0_4_1163" style="mask-type:luminance" maskUnits="userSpaceOnUse" x="0" y="0" width="28" height="33">
<path d="M27.5513 0.907227H0.42543V32.9072H27.5513V0.907227Z" fill="white"/>
</mask>
<g mask="url(#mask0_4_1163)">
<path d="M23.4363 3.3975C21.9598 1.71465 19.2909 0.993164 15.8765 0.993164H5.9671C5.62929 0.993177 5.30256 1.1137 5.04565 1.33306C4.78875 1.55242 4.61852 1.85624 4.56557 2.18988L0.439479 28.3586C0.357466 28.8746 0.757042 29.3418 1.28006 29.3418H7.39779L8.93421 19.5966L8.88653 19.9018C8.99598 19.2129 9.58513 18.7048 10.2828 18.7048H13.1899C18.901 18.7048 23.3727 16.3851 24.679 9.67481C24.7179 9.47634 24.7515 9.28318 24.7805 9.09446C24.6156 9.00715 24.6156 9.00715 24.7805 9.09446C25.1694 6.61425 24.7778 4.92598 23.4363 3.3975Z" fill="#27346A"/>
<path d="M11.2751 8.201C11.4423 8.12137 11.6253 8.0801 11.8105 8.08021H19.5793C20.4993 8.08021 21.3573 8.14007 22.1414 8.26628C22.3608 8.30126 22.5791 8.34303 22.7959 8.39153C23.1033 8.45933 23.407 8.54234 23.7061 8.64021C24.0916 8.76895 24.4506 8.91889 24.7806 9.09446C25.1694 6.6133 24.7778 4.92598 23.4363 3.3975C21.9589 1.71465 19.2909 0.993164 15.8765 0.993164H5.96626C5.26851 0.993164 4.67492 1.50114 4.56557 2.18988L0.43948 28.3576C0.357467 28.8745 0.757043 29.3411 1.27921 29.3411H7.39779L10.5854 9.1271C10.6167 8.92841 10.6959 8.74031 10.816 8.57899C10.9362 8.41768 11.0937 8.28795 11.2751 8.201Z" fill="#27346A"/>
<path d="M24.6798 9.67507C23.3735 16.3844 18.9019 18.7051 13.1907 18.7051H10.2827C9.58507 18.7051 8.99582 19.2132 8.88743 19.902L6.97602 32.0192C6.9046 32.4707 7.25383 32.88 7.71074 32.88H12.8678C13.1632 32.8799 13.449 32.7744 13.6735 32.5825C13.8981 32.3906 14.0469 32.1249 14.0931 31.833L14.1433 31.5703L15.1152 25.4101L15.1779 25.0697C15.224 24.7779 15.3727 24.5122 15.5973 24.3203C15.8219 24.1284 16.1076 24.0229 16.403 24.0228H17.1748C22.1705 24.0228 26.0822 21.9932 27.2253 16.1235C27.7024 13.6705 27.4556 11.6225 26.1934 10.184C25.8106 9.74828 25.3351 9.38844 24.7813 9.09473C24.7513 9.2844 24.7188 9.4766 24.6798 9.67507Z" fill="#2790C3"/>
<path d="M23.4134 8.54937C23.2098 8.4899 23.0042 8.43725 22.797 8.3915C22.5801 8.3438 22.3618 8.30231 22.1425 8.2671C21.3575 8.14005 20.5001 8.08008 19.5793 8.08008H11.8114C11.6261 8.07966 11.443 8.12128 11.276 8.20183C11.0945 8.2885 10.9367 8.41814 10.8165 8.57951C10.6963 8.74088 10.6173 8.92911 10.5862 9.12792L8.93516 19.5966L8.88748 19.9017C8.99609 19.2129 9.58523 18.7048 10.283 18.7048H13.1909C18.902 18.7048 23.3738 16.3851 24.6801 9.67478C24.7189 9.47631 24.7515 9.284 24.7815 9.09444C24.4507 8.91981 24.0926 8.76893 23.7071 8.64103C23.6098 8.60878 23.5118 8.57822 23.4134 8.54937Z" fill="#1F264F"/>
</g>
</g>
<defs>
<clipPath id="clip0_4_1163">
<rect width="27.4286" height="32" fill="white" transform="translate(0.42543 0.907227)"/>
</clipPath>
</defs>
</svg>
